<?xml version="1.0" standalone="no"?>
<!DOCTYPE svg PUBLIC "-//W3C//DTD SVG 20010904//EN"
 "http://www.w3.org/TR/2001/REC-SVG-20010904/DTD/svg10.dtd">
<svg version="1.0" xmlns="http://www.w3.org/2000/svg"
 width="700.000000pt" height="700.000000pt" viewBox="0 0 700.000000 700.000000"
 preserveAspectRatio="xMidYMid meet">
<metadata>
Created by potrace 1.11, written by Peter Selinger 2001-2013
</metadata>
<g transform="translate(0.000000,700.000000) scale(0.100000,-0.100000)"
fill="#000000" stroke="none">
<path d="M2160 5384 c0 0 -18 -79 -41 -175 -22 -96 -42 -182 -44 -191 -2 -9
-22 -97 -45 -195 -82 -353 -172 -738 -175 -753 -2 -8 -11 -46 -20 -85 -9 -38
-19 -81 -21 -95 -3 -14 -12 -52 -21 -85 -8 -33 -17 -71 -19 -85 -3 -14 -18
-79 -34 -146 -16 -66 -31 -131 -34 -145 -2 -13 -16 -73 -30 -133 -14 -59 -29
-122 -31 -139 -3 -17 -8 -33 -10 -36 -2 -3 -22 -89 -45 -191 -23 -102 -55
-239 -70 -305 -56 -242 -112 -480 -116 -498 -2 -9 -6 -27 -9 -40 -3 -12 -27
-119 -55 -238 -27 -119 -50 -221 -50 -225 0 -11 2247 -10 2380 0 52 4 106 9
120 11 81 10 136 17 154 21 12 2 36 7 55 10 50 8 71 13 89 18 9 3 28 7 42 10
52 10 177 49 264 83 501 194 866 580 1045 1109 47 138 43 122 75 274 21 102
33 184 51 355 7 60 7 374 1 430 -19 176 -39 271 -82 403 -141 422 -427 720
-854 889 -91 36 -267 87 -340 98 -25 4 -52 9 -60 10 -18 3 -96 15 -130 20
-103 15 -280 18 -1057 19 -486 1 -883 1 -883 0z m1591 -1124 c106 -27 162 -62
217 -138 62 -87 87 -206 87 -412 -1 -142 -8 -229 -30 -327 -9 -37 -18 -78 -21
-91 -8 -38 -52 -151 -76 -196 -119 -217 -295 -339 -528 -363 -53 -5 -260 -8
-332 -4 -15 1 -15 5 -2 49 8 26 17 58 19 72 2 14 13 61 24 105 10 44 26 112
35 150 8 39 54 238 101 444 48 205 88 383 91 394 14 75 72 310 80 328 5 10
290 1 335 -11z"/>
</g>
</svg>
