<?xml version="1.0" standalone="no"?>
<!DOCTYPE svg PUBLIC "-//W3C//DTD SVG 20010904//EN"
 "http://www.w3.org/TR/2001/REC-SVG-20010904/DTD/svg10.dtd">
<svg version="1.0" xmlns="http://www.w3.org/2000/svg"
 width="260.000000pt" height="260.000000pt" viewBox="0 0 260.000000 260.000000"
 preserveAspectRatio="xMidYMid meet">
<metadata>
Created by potrace 1.11, written by Peter Selinger 2001-2013
</metadata>
<g transform="translate(0.000000,260.000000) scale(0.100000,-0.100000)"
fill="#000000" stroke="none">
<path d="M540 1316 l0 -867 433 2 c373 0 445 3 527 19 259 50 422 159 532 360
26 47 66 158 74 206 2 16 7 35 9 42 11 31 19 155 18 272 -4 420 -204 697 -578
801 -76 22 -101 23 -547 27 l-468 4 0 -866z m768 480 c151 -22 262 -101 320
-229 36 -77 49 -154 47 -272 -4 -269 -118 -425 -335 -458 -29 -5 -273 -10
-332 -8 -17 1 -18 31 -18 484 0 266 2 486 4 488 8 7 256 3 314 -5z"/>
</g>
</svg>
